<?xml version="1.0" encoding="UTF-8"?>
<svg width="7px" height="11px" viewBox="0 0 7 11" version="1.1" xmlns="http://www.w3.org/2000/svg" xmlns:xlink="http://www.w3.org/1999/xlink">
    <!-- Generator: Sketch 52.4 (67378) - http://www.bohemiancoding.com/sketch -->
    <title>B</title>
    <desc>Created with Sketch.</desc>
    <g id="Page-1" stroke="none" stroke-width="1" fill="none" fill-rule="evenodd">
        <g id="Tooltip" transform="translate(-189.000000, -428.000000)" fill="#000000">
            <g id="Group-5" transform="translate(160.501044, 341.063787)">
                <g id="Group-2" transform="translate(11.197399, 25.196325)">
                    <path d="M23.3870305,69.5377265 C23.3870305,70.7109877 23.213214,71.435223 22.720734,71.9421877 C22.2861929,72.3912136 21.6488658,72.5939995 20.6928752,72.5939995 L18.1290823,72.5939995 L18.1290823,62.2808889 L20.7073599,62.2808889 C21.6633505,62.2808889 22.2861929,62.4836748 22.720734,62.9182159 C23.1842446,63.3962112 23.3580611,64.0769924 23.3580611,65.0909218 C23.3580611,65.7861877 23.2856376,66.3655759 22.822127,66.8290865 C22.6627952,66.9884183 22.4889787,67.1042959 22.2861929,67.1912042 C22.5034634,67.2781124 22.6917646,67.4084748 22.8366117,67.5678065 C23.3435764,68.1182254 23.3870305,68.9003995 23.3870305,69.5377265 Z M21.7647434,69.5232418 C21.7647434,68.3789501 21.4026258,67.9154395 20.5335434,67.9154395 L19.7513693,67.9154395 L19.7513693,71.1310442 L20.5335434,71.1310442 C21.4171105,71.1310442 21.7647434,70.7254724 21.7647434,69.5232418 Z M21.735774,65.1343759 C21.735774,64.0914771 21.3881411,63.7438442 20.5190587,63.7438442 L19.7513693,63.7438442 L19.7513693,66.5393924 L20.5190587,66.5393924 C21.3736564,66.5393924 21.735774,66.1193359 21.735774,65.1343759 Z" id="B"></path>
                </g>
            </g>
        </g>
    </g>
</svg>