<?xml version="1.0" encoding="UTF-8"?>
<svg width="7px" height="12px" viewBox="0 0 7 12" version="1.1" xmlns="http://www.w3.org/2000/svg" xmlns:xlink="http://www.w3.org/1999/xlink">
    <!-- Generator: Sketch 52.4 (67378) - http://www.bohemiancoding.com/sketch -->
    <title>C</title>
    <desc>Created with Sketch.</desc>
    <g id="Page-1" stroke="none" stroke-width="1" fill="none" fill-rule="evenodd">
        <g id="Tooltip" transform="translate(-189.000000, -448.000000)" fill="#000000">
            <g id="Group-5" transform="translate(160.501044, 341.063787)">
                <g id="Group-2" transform="translate(11.197399, 25.196325)">
                    <path d="M23.4232423,89.9176567 C23.3942729,90.8446779 23.090094,91.6413367 22.5686446,92.119332 C22.105134,92.5393885 21.5547152,92.7711438 20.7870258,92.7711438 C19.8020658,92.7711438 19.2226776,92.3945414 18.7881364,91.9020614 C18.020447,91.0329791 18.0349317,89.5410544 18.0349317,87.5131955 C18.0349317,85.4853367 18.020447,83.9644426 18.7881364,83.0953603 C19.2226776,82.6028803 19.8020658,82.2262779 20.7870258,82.2262779 C21.5691999,82.2262779 22.1196187,82.4580332 22.5831293,82.8925744 C23.090094,83.3705697 23.3797881,84.1527438 23.4087576,85.0652803 L21.7864705,85.0652803 C21.7719858,84.6886779 21.714047,84.3265603 21.5402305,84.0658355 C21.3953834,83.8340803 21.1781129,83.6892332 20.7870258,83.6892332 C20.3959387,83.6892332 20.1641834,83.848565 20.0193364,84.0803203 C19.7151576,84.5728003 19.6572187,85.6156991 19.6572187,87.4987108 C19.6572187,89.3817226 19.7151576,90.4246214 20.0193364,90.9171014 C20.1641834,91.1488567 20.3959387,91.3081885 20.7870258,91.3081885 C21.1781129,91.3081885 21.4098681,91.1633414 21.5547152,90.9315861 C21.7285317,90.6708614 21.7864705,90.2942591 21.8009552,89.9176567 L23.4232423,89.9176567 Z" id="C"></path>
                </g>
            </g>
        </g>
    </g>
</svg>