<?xml version="1.0" encoding="UTF-8"?>
<svg width="7px" height="11px" viewBox="0 0 7 11" version="1.1" xmlns="http://www.w3.org/2000/svg" xmlns:xlink="http://www.w3.org/1999/xlink">
    <!-- Generator: Sketch 52.4 (67378) - http://www.bohemiancoding.com/sketch -->
    <title>S</title>
    <desc>Created with Sketch.</desc>
    <g id="Page-1" stroke="none" stroke-width="1" fill="none" fill-rule="evenodd">
        <g id="Tooltip" transform="translate(-189.000000, -388.000000)" fill="#000000">
            <g id="Group-5" transform="translate(160.501044, 341.063787)">
                <g id="Group-2" transform="translate(11.197399, 25.196325)">
                    <path d="M23.4632093,29.6179791 C23.4632093,30.6753626 23.3183623,31.3851132 22.7969129,31.8920779 C22.3768564,32.2976497 21.6960752,32.5728591 20.7835387,32.5728591 C19.885487,32.5728591 19.2191905,32.3266191 18.7846493,31.8920779 C18.2921693,31.3995979 18.1183529,30.7622708 18.1183529,29.6759179 L19.7406399,29.6759179 C19.7406399,30.2263367 19.7985787,30.5739697 20.030334,30.8346944 C20.1751811,30.9940261 20.4214211,31.1099038 20.7835387,31.1099038 C21.1601411,31.1099038 21.4063811,31.0085108 21.5657129,30.8202097 C21.7829834,30.5739697 21.8409223,30.2263367 21.8409223,29.6759179 C21.8409223,28.5750803 21.6671058,28.2998708 20.870447,27.9812073 L19.639247,27.4742426 C18.5963481,27.0397014 18.2052611,26.4747979 18.2052611,24.8814803 C18.2052611,23.9544591 18.4804705,23.2012544 19.045374,22.6942897 C19.4943999,22.3032026 20.0737881,22.0714473 20.8125081,22.0714473 C21.6381364,22.0714473 22.246494,22.2887179 22.6665505,22.6942897 C23.2024846,23.2157391 23.3907858,23.9544591 23.3907858,24.9394191 L21.7684987,24.9394191 C21.7684987,24.4759085 21.7395293,24.1137908 21.5222587,23.8385814 C21.3774117,23.6502803 21.1456564,23.5344026 20.7980234,23.5344026 C20.4648752,23.5344026 20.2620893,23.6502803 20.1027576,23.8240967 C19.9144564,24.0413673 19.8275481,24.3890003 19.8275481,24.8380261 C19.8275481,25.6781391 19.9579105,25.9388638 20.6821458,26.2285579 L21.8988611,26.7210379 C23.1300611,27.2280026 23.4632093,27.8798144 23.4632093,29.6179791 Z" id="S"></path>
                </g>
            </g>
        </g>
    </g>
</svg>